<svg width="35" height="35" viewBox="0 0 35 35" fill="none" xmlns="http://www.w3.org/2000/svg">
<g clip-path="url(#clip0)">
<path d="M31.0356 13.1652C31.1458 12.6239 30.93 12.0281 30.4988 11.6827C30.2307 11.4681 29.8865 11.3559 29.5433 11.3559C29.3343 11.3559 29.1256 11.3975 28.9348 11.483C28.8672 11.5132 28.802 11.5485 28.7389 11.5826C28.6403 11.6358 28.5471 11.6861 28.4467 11.7186C27.9869 11.8675 27.5448 11.6227 27.077 11.3633C26.8676 11.2472 26.6511 11.1272 26.4317 11.0447C26.0337 10.895 25.6052 10.869 25.1909 10.844C24.8855 10.8254 24.5697 10.8063 24.2718 10.7374C23.8291 10.6349 23.4038 10.3277 23.2135 9.97295C23.0931 9.74864 23.072 9.51654 23.1523 9.3018C23.2066 9.15679 23.3019 9.03277 23.4028 8.90151C23.4916 8.78597 23.5834 8.66646 23.6467 8.52952C23.7861 8.22816 23.7673 7.89569 23.7491 7.57416C23.7372 7.36359 23.7249 7.14591 23.7581 6.94225C23.8115 6.61552 23.9844 6.31026 24.1516 6.01505C24.3558 5.65442 24.5669 5.28154 24.5712 4.85787C24.5735 4.63739 24.5181 4.42395 24.4646 4.21748C24.439 4.11876 24.4126 4.01662 24.3933 3.91639C24.3137 3.50236 24.3535 3.06625 24.5082 2.65085L24.5455 2.59288C23.0002 1.95057 21.3755 1.55917 19.7333 1.41724C19.5717 1.87721 19.1133 2.36145 18.9256 2.80686C18.8361 3.01921 18.8137 3.25412 18.7348 3.47064C18.6559 3.68716 18.4943 3.8995 18.2662 3.93205C18.1963 3.94203 18.1224 3.93478 18.0575 3.96261C17.8797 4.03877 17.8958 4.29241 17.8141 4.46777C17.7283 4.65209 17.5182 4.75273 17.3153 4.76544C17.1124 4.77816 16.9127 4.71847 16.7182 4.65934C16.467 4.58311 16.1973 4.49375 16.0462 4.27922C15.9633 4.16162 15.9258 4.01792 15.8519 3.89445C15.7212 3.6756 15.4912 3.54003 15.2855 3.38949C14.8226 3.05087 14.4502 2.45347 14.204 1.8928C13.2484 2.14439 12.3116 2.48527 11.4063 2.91447L11.4438 2.97067C11.4639 3.18452 11.5689 3.38019 11.7387 3.5161L12.9235 4.46394C13.0806 4.5896 13.1706 4.777 13.1706 4.97806V6.32448C13.1706 6.76292 13.5273 7.11952 13.9657 7.11952H14.5194C14.8824 7.11952 15.1778 7.41487 15.1778 7.7779V8.41542C15.1778 8.62305 15.0782 8.82083 14.9113 8.94444L11.6606 11.3523C11.5481 11.4357 11.4089 11.4817 11.2688 11.4817H9.25918C8.82074 11.4817 8.46414 11.8383 8.46414 12.2767V13.6022C8.46414 13.8146 8.5468 14.0143 8.697 14.1645L10.1054 15.5729C10.2556 15.7231 10.4553 15.8058 10.6677 15.8058H12.6506C13.0136 15.8058 13.309 16.1011 13.309 16.4641V17.0524C13.309 17.4908 13.6656 17.8475 14.104 17.8475H15.4882C15.8513 17.8475 16.1466 18.1428 16.1466 18.5058C16.1466 18.9443 16.5033 19.3009 16.9417 19.3009H18.7412C19.1042 19.3009 19.3996 19.5962 19.3996 19.9593V21.8617C19.3996 22.0614 19.3105 22.248 19.1551 22.3736L16.4418 24.5673C16.2542 24.719 16.1466 24.9444 16.1466 25.1856V26.1153C16.1466 26.2968 16.0706 26.472 15.9381 26.596L14.9191 27.5494C14.759 27.6991 14.6672 27.9108 14.6672 28.13V30.2025C14.6672 30.5656 14.3719 30.8609 14.0089 30.8609H12.9275C12.5645 30.8609 12.2692 30.5656 12.2692 30.2025V28.8803C12.2692 28.7616 12.242 28.6423 12.1904 28.5354L11.4346 26.9655C11.3919 26.877 11.3694 26.7782 11.3694 26.6799V23.6883C11.3694 23.4333 11.2459 23.1921 11.0389 23.043L8.18254 20.9864C8.01114 20.863 7.90886 20.6633 7.90886 20.4521V18.3829C7.90886 18.2711 7.93758 18.1604 7.99193 18.0628L8.14275 17.792C8.31531 17.4818 8.25986 17.0907 8.00786 16.8408L5.49941 14.3534C5.37566 14.2307 5.30463 14.0603 5.30463 13.8859V12.3021C5.30463 12.0799 5.21076 11.8664 5.04702 11.7162L3.81184 10.583L3.75707 10.5394C0.882652 16.5474 1.93291 23.9636 6.91036 28.941C13.2208 35.2515 23.4522 35.2515 29.7627 28.941C30.1858 28.5179 30.5796 28.0766 30.9459 27.6206H30.8595C30.3542 27.2572 29.971 26.9305 29.6567 26.5957C28.8694 25.7569 28.3449 24.668 28.1801 23.5294C28.1513 23.3303 28.1326 23.1253 28.1145 22.9271C28.0831 22.5818 28.0505 22.2247 27.9633 21.8808C27.8437 21.4092 27.6224 20.9645 27.4084 20.5344C27.1224 19.9598 26.8523 19.417 26.7959 18.8068C26.715 17.9341 27.1288 17.0483 27.8499 16.5501C28.273 16.2579 28.7824 16.1031 29.275 15.9536C29.7396 15.8125 30.22 15.6666 30.6392 15.4051C30.7455 15.3387 30.8614 15.2533 30.9152 15.1241C30.9907 14.9423 30.9198 14.7632 30.8512 14.5901C30.8221 14.5167 30.7947 14.4474 30.778 14.3785C30.716 14.1223 30.8074 13.8666 30.9042 13.5958C30.9542 13.4562 31.0058 13.3117 31.0356 13.1652Z" fill="#23A8FE"/>
<path d="M12.9274 30.861C12.5644 30.861 12.2691 30.5657 12.2691 30.2026V30.104C11.8225 29.7436 11.3905 29.3561 10.9755 28.9411C7.24229 25.208 5.71818 20.1026 6.40199 15.2485L5.49941 14.3535C5.37566 14.2307 5.30463 14.0603 5.30463 13.886V12.3021C5.30463 12.0799 5.21076 11.8664 5.04702 11.7163L3.81184 10.583L3.75707 10.5394C0.882652 16.5474 1.93291 23.9637 6.91036 28.9411C10.5837 32.6144 15.5854 34.1486 20.3691 33.5455C17.8763 33.2312 15.443 32.3362 13.2874 30.861H12.9274V30.861Z" fill="#0193FA"/>
<path d="M14.2045 1.89417C13.2489 2.14596 12.3117 2.4852 11.4063 2.91468L11.4438 2.97088C11.4639 3.18473 11.5689 3.3804 11.7387 3.51631L12.8986 4.44419C13.5742 3.95194 14.2797 3.51986 15.0073 3.14542C14.6727 2.80249 14.3992 2.33718 14.2045 1.89417Z" fill="#0193FA"/>
<path d="M18.7413 19.2325H16.9418C16.5404 19.2325 16.2151 18.9072 16.2151 18.5058C16.2151 18.1044 15.8897 17.779 15.4883 17.779H14.1041C13.7027 17.779 13.3774 17.4537 13.3774 17.0523V16.464C13.3774 16.0626 13.052 15.7372 12.6506 15.7372H10.6677C10.4749 15.7372 10.2901 15.6607 10.1537 15.5244L8.74531 14.116C8.60906 13.9797 8.53249 13.7949 8.53249 13.6021V12.2766C8.53249 11.8753 8.85784 11.5499 9.25923 11.5499H11.2687C11.4245 11.5499 11.5762 11.4999 11.7013 11.4072L14.9518 8.99934C15.1369 8.86226 15.246 8.64561 15.246 8.41535V7.77783C15.246 7.37644 14.9206 7.05109 14.5192 7.05109H13.9655C13.5642 7.05109 13.2388 6.72573 13.2388 6.32434V4.97813C13.2388 4.75737 13.1384 4.54858 12.966 4.41068L11.7812 3.46284C11.6088 3.32495 11.5084 3.11615 11.5084 2.8954V2.86484C9.84383 3.64046 8.28404 4.71492 6.91021 6.08875C5.56057 7.43838 4.50061 8.96769 3.72827 10.5993L5.00065 11.7666C5.15065 11.9043 5.2361 12.0986 5.2361 12.3021V13.8859C5.2361 14.0798 5.3135 14.2655 5.45112 14.402L7.95936 16.8894C8.19072 17.1188 8.24111 17.4742 8.08263 17.7589L7.93188 18.0297C7.87172 18.1377 7.84013 18.2594 7.84013 18.3831V20.4523C7.84013 20.6861 7.95253 20.9055 8.14225 21.042L10.9986 23.0987C11.1883 23.2352 11.3007 23.4547 11.3007 23.6885V26.6801C11.3007 26.7893 11.3253 26.8971 11.3727 26.9954L12.1285 28.5652C12.1759 28.6636 12.2004 28.7713 12.2004 28.8805V30.2027C12.2004 30.6041 12.5258 30.9295 12.9272 30.9295H14.0086C14.41 30.9295 14.7353 30.6041 14.7353 30.2027V28.1302C14.7353 27.9291 14.8187 27.737 14.9655 27.5995L15.9845 26.6461C16.1314 26.5087 16.2147 26.3166 16.2147 26.1154V25.1858C16.2147 24.9663 16.3139 24.7586 16.4846 24.6206L19.1979 22.4269C19.3686 22.2889 19.4678 22.0812 19.4678 21.8618V19.9593C19.468 19.5579 19.1426 19.2325 18.7413 19.2325Z" fill="#43CB8E"/>
<path d="M11.5086 2.89534V2.8656C8.00666 4.4967 5.23061 7.36381 3.72845 10.5993L5.00083 11.7666C5.15083 11.9042 5.23622 12.0985 5.23622 12.3021V13.8859C5.23622 14.0797 5.31361 14.2655 5.45123 14.4019L6.39067 15.3336C6.84879 11.9521 8.37632 8.6878 10.9754 6.08869C11.5996 5.4645 12.2626 4.903 12.9559 4.40249L11.7813 3.46279C11.609 3.32496 11.5086 3.11617 11.5086 2.89534Z" fill="#00BA66"/>
<path d="M34.4957 17.5149C34.4957 13.3795 32.9181 9.24404 29.7628 6.08876C28.1994 4.52535 26.3952 3.34985 24.4697 2.5611C24.2956 2.9929 24.2381 3.47174 24.3262 3.92939C24.3859 4.23937 24.5061 4.54162 24.5029 4.85727C24.4953 5.60657 23.8116 6.19179 23.6907 6.93132C23.6054 7.45316 23.8066 8.02095 23.5847 8.50089C23.4553 8.78078 23.1965 8.98916 23.0883 9.27788C22.8336 9.95827 23.5486 10.6401 24.2563 10.804C24.9641 10.9678 25.7277 10.853 26.4077 11.1087C27.1028 11.37 27.7613 12.0124 28.4678 11.7836C28.6422 11.7271 28.7955 11.6203 28.9628 11.5453C29.4445 11.3296 30.0441 11.4061 30.4561 11.7361C30.8681 12.066 31.0739 12.6343 30.9687 13.1516C30.8832 13.5715 30.6109 13.978 30.7116 14.3946C30.7692 14.6326 30.9461 14.8717 30.8521 15.0978C30.8063 15.2081 30.7043 15.2838 30.603 15.347C29.7464 15.8818 28.642 15.9199 27.8112 16.4938C27.0753 17.0022 26.6454 17.9224 26.7278 18.813C26.8296 19.913 27.6257 20.8267 27.8971 21.8975C28.0328 22.433 28.0333 22.9924 28.1125 23.5391C28.2796 24.6932 28.8088 25.7922 29.607 26.6424C29.9861 27.0464 30.42 27.3914 30.8721 27.7135C33.2874 24.7516 34.4936 21.1332 34.4936 17.5147H34.4957V17.5149Z" fill="#43CB8E"/>
<path d="M28.4679 11.7836C28.6423 11.7272 28.7955 11.6203 28.9629 11.5454C29.4446 11.3296 30.0441 11.4062 30.4561 11.7361C30.8682 12.0661 31.074 12.6343 30.9687 13.1516C30.8833 13.5717 30.611 13.9781 30.7117 14.3947C30.7692 14.6326 30.9461 14.8718 30.8522 15.0979C30.8494 15.1045 30.8459 15.1106 30.8427 15.117C31.5915 14.7761 32.4614 14.6713 33.1646 14.2323C33.2659 14.1691 33.3679 14.0934 33.4138 13.9832C33.5077 13.757 33.3308 13.5179 33.2733 13.2799C33.1725 12.8632 33.4449 12.4568 33.5303 12.0368C33.5318 12.0297 33.5325 12.0225 33.5339 12.0153C33.355 11.52 33.1511 11.0317 32.9223 10.5523C32.5166 10.2821 31.9703 10.231 31.5244 10.4307C31.3571 10.5056 31.2039 10.6125 31.0295 10.6689C30.3229 10.8976 29.6644 10.2554 28.9693 9.99394C28.2893 9.73825 27.5258 9.85303 26.818 9.68923C26.1102 9.52535 25.3952 8.84353 25.6499 8.16314C25.7581 7.87436 26.0169 7.66598 26.1463 7.38615C26.3683 6.90615 26.167 6.33843 26.2523 5.81658C26.3643 5.13154 26.9588 4.5788 27.0519 3.90545C26.2249 3.37485 25.3605 2.92609 24.4698 2.56122C24.2956 2.99302 24.2382 3.47187 24.3263 3.92951C24.386 4.23949 24.5061 4.54174 24.5029 4.85739C24.4953 5.60669 23.8116 6.19191 23.6907 6.93144C23.6055 7.45329 23.8067 8.02107 23.5848 8.50101C23.4554 8.7809 23.1965 8.98929 23.0884 9.278C22.8337 9.95839 23.5487 10.6402 24.2565 10.8041C24.9643 10.9679 25.7278 10.8531 26.4078 11.1088C27.1029 11.37 27.7613 12.0123 28.4679 11.7836Z" fill="#00BA66"/>
<path d="M32.1686 25.5278C31.3704 24.6775 30.8412 23.5785 30.6741 22.4244C30.5949 21.8778 30.5944 21.3183 30.4587 20.7829C30.1873 19.712 29.3912 18.7984 29.2894 17.6984C29.2179 16.9262 29.5321 16.1321 30.0964 15.6031C29.3402 15.9151 28.4856 16.028 27.8111 16.4939C27.0752 17.0023 26.6453 17.9225 26.7278 18.8132C26.8296 19.9132 27.6256 20.8268 27.8971 21.8977C28.0328 22.4331 28.0333 22.9926 28.1124 23.5392C28.2796 24.6933 28.8088 25.7923 29.6069 26.6425C29.9861 27.0465 30.42 27.3916 30.872 27.7136C31.4061 27.0587 31.8808 26.3716 32.2967 25.6595C32.2535 25.6162 32.2105 25.5725 32.1686 25.5278Z" fill="#00BA66"/>
<path d="M18.7349 3.53909C18.8137 3.32257 18.8362 3.08766 18.9257 2.87531C19.1167 2.42211 19.5887 1.92864 19.7423 1.46149C19.747 1.44733 19.7505 1.43311 19.7544 1.41889C19.2828 1.3776 18.8098 1.35593 18.3367 1.35593V1.35798C16.9375 1.35798 15.5383 1.53901 14.1771 1.89992C14.4226 2.4779 14.8057 3.10701 15.2854 3.45807C15.4911 3.60862 15.7211 3.74419 15.8519 3.96303C15.9258 4.0865 15.9634 4.23014 16.0461 4.3478C16.1972 4.56234 16.467 4.65169 16.7181 4.72792C16.9127 4.78699 17.1123 4.84674 17.3152 4.83403C17.5182 4.82131 17.7283 4.72067 17.8141 4.53636C17.8958 4.361 17.8798 4.10735 18.0575 4.03119C18.1224 4.00337 18.1962 4.01061 18.2662 4.00063C18.4944 3.96795 18.656 3.75561 18.7349 3.53909Z" fill="#43CB8E"/>
<path d="M19.7544 1.41904C19.275 1.37706 18.7999 1.35587 18.3367 1.35587V1.35792C16.9777 1.35792 15.5532 1.53382 14.1771 1.89986C14.3647 2.34151 14.6329 2.81256 14.9629 3.16704C16.4641 2.38882 18.0617 1.86171 19.6937 1.58606C19.7335 1.49472 19.7422 1.46286 19.7544 1.41904Z" fill="#00BA66"/>
<path d="M18.0518 19.1397L17.0797 18.1676C16.9677 18.0557 16.8966 17.9184 16.8659 17.774C13.7402 20.8063 10.6308 23.5221 7.97782 25.5301C5.59537 27.3333 4.15419 28.1371 3.33434 28.4952C3.19186 28.5575 3.04795 28.4127 3.11023 28.2702C3.33953 27.7459 3.75131 26.9672 4.48967 25.851C4.47012 25.8185 4.45132 25.7857 4.43197 25.7531C4.11167 25.1863 3.31902 23.4907 3.31902 23.4907C2.31792 24.8977 1.57744 26.1063 1.11514 27.0896C0.805032 27.7492 -0.0187223 29.5012 1.04261 30.5625C1.38642 30.9063 1.82363 31.0815 2.3744 31.0815C3.69477 31.0815 5.66668 30.0737 8.56127 27.9646C11.4841 25.8349 14.9784 22.8185 18.5304 19.367C18.3555 19.3492 18.1855 19.2734 18.0518 19.1397Z" fill="#FEE55A"/>
<path d="M17.0796 18.1675C16.9676 18.0556 16.8965 17.9183 16.8658 17.774C13.7401 20.8062 10.6307 23.522 7.97773 25.53C6.74624 26.4621 5.76647 27.127 4.99379 27.6015L4.99372 27.6014C4.48527 27.9137 3.88323 28.2554 3.33425 28.4952C3.2131 28.5481 3.09141 28.4513 3.09585 28.3335C3.09578 28.3337 2.84317 29.468 4.58194 28.6661C5.40173 28.308 6.84298 27.5041 9.22543 25.7009C11.6972 23.8301 14.5652 21.3447 17.4736 18.5614L17.0796 18.1675Z" fill="#FFD301"/>
<path d="M2.2903 30.7334C1.22898 29.6721 2.05273 27.9201 2.36284 27.2605C2.71172 26.5185 3.21914 25.6482 3.87717 24.6611C3.5888 24.0678 3.31902 23.4906 3.31902 23.4906C2.31792 24.8977 1.57744 26.1062 1.11514 27.0895C0.805032 27.7491 -0.0187223 29.5012 1.04261 30.5624C1.38642 30.9063 1.82363 31.0815 2.3744 31.0815C2.48987 31.0815 2.61067 31.0733 2.73633 31.0578C2.57273 30.9754 2.4243 30.8674 2.2903 30.7334Z" fill="#FFD301"/>
<path d="M27.5486 19.0894L25.036 13.5194L22.4017 16.0431L26.0771 20.3358C26.2171 20.4993 26.4666 20.5089 26.6187 20.3568L27.4731 19.5024C27.5817 19.3938 27.6118 19.2294 27.5486 19.0894Z" fill="#B1DBFC"/>
<path d="M27.2183 19.2867L23.5221 14.9698L22.4017 16.0431L26.0771 20.3358C26.2171 20.4993 26.4666 20.5089 26.6187 20.3568L27.4731 19.5024C27.4984 19.4771 27.519 19.4486 27.5356 19.4182C27.4195 19.4269 27.3005 19.3827 27.2183 19.2867Z" fill="#8BCAFF"/>
<path d="M22.6998 11.1833L17.1298 8.67063C16.9899 8.60746 16.8255 8.63754 16.7169 8.74611L15.8625 9.60049C15.7104 9.75261 15.72 10.0021 15.8835 10.1421L20.1762 13.8175L22.6998 11.1833Z" fill="#B1DBFC"/>
<path d="M16.8032 9.13026C16.7004 9.0422 16.6571 8.91203 16.6746 8.78842L15.8625 9.60048C15.7104 9.75267 15.72 10.0021 15.8835 10.1421L20.1762 13.8175L21.1232 12.829L16.8032 9.13026Z" fill="#8BCAFF"/>
<path d="M21.5528 20.4784L20.9582 17.4262L19.1572 19.1515C19.0533 19.251 18.9291 19.3158 18.7985 19.3477L19.8348 21.3541C19.9335 21.5453 20.1741 21.612 20.3571 21.4987L21.3846 20.863C21.5152 20.7822 21.5822 20.6291 21.5528 20.4784Z" fill="#FF656F"/>
<path d="M17.0678 17.062L18.7931 15.2611L15.7409 14.6665C15.5902 14.6371 15.437 14.7041 15.3563 14.8347L14.7205 15.8622C14.6073 16.0452 14.674 16.2858 14.8651 16.3845L16.8716 17.4208C16.9034 17.2902 16.9682 17.1658 17.0678 17.062Z" fill="#FF656F"/>
<path d="M20.5092 19.4693C20.3965 19.2512 20.4519 18.9906 20.6301 18.8216C20.6312 18.8207 20.6323 18.8196 20.6333 18.8187L21.1356 18.3374L20.9582 17.4262L19.1572 19.1515C19.0533 19.251 18.9291 19.3158 18.7985 19.3478L19.8348 21.3542C19.9335 21.5454 20.1741 21.6121 20.3571 21.4988L21.2667 20.936L20.5092 19.4693Z" fill="#FF4756"/>
<path d="M16.3412 16.0517C16.15 15.9529 16.0834 15.7123 16.1966 15.5293L16.624 14.8385L15.7409 14.6665C15.5902 14.6371 15.437 14.7041 15.3563 14.8347L14.7205 15.8622C14.6073 16.0452 14.674 16.2858 14.8651 16.3845L16.8716 17.4208C16.9034 17.2902 16.9682 17.1659 17.0678 17.062L17.4748 16.6372L16.3412 16.0517Z" fill="#FF4756"/>
<path d="M28.2872 8.63168C28.209 8.28273 27.9365 8.01015 27.5875 7.93194C26.6762 7.72766 25.7244 8.01501 25.0784 8.68938L17.0203 17.1004C16.7217 17.4122 16.7269 17.9055 17.0322 18.2107L18.0085 19.1871C18.3138 19.4923 18.8071 19.4976 19.1188 19.199L27.5298 11.1409C28.2042 10.4947 28.4915 9.54301 28.2872 8.63168Z" fill="#DFEBFA"/>
<path d="M18.1261 19.2561C17.8208 18.9508 17.8155 18.4576 18.1142 18.1458L26.1722 9.73484C26.7367 9.14572 27.5344 8.85209 28.3347 8.92346C28.324 8.82604 28.309 8.72861 28.2872 8.63174C28.209 8.28279 27.9365 8.01028 27.5875 7.932C26.6762 7.72772 25.7244 8.01507 25.0784 8.68944L17.0203 17.1004C16.7217 17.4122 16.7269 17.9054 17.0322 18.2107L18.0085 19.1871C18.0654 19.2439 18.1287 19.2902 18.1961 19.3262L18.1261 19.2561Z" fill="#B1DBFC"/>
<path d="M18.7027 0.832664C6.84365 0.557145 -1.43409 12.3874 2.73315 23.4046C1.79468 24.7411 1.09166 25.9016 0.642763 26.8563C0.324447 27.5335 -0.644382 29.594 0.671751 30.91C2.25985 32.4979 5.04457 30.9098 6.9464 29.682C10.046 32.5823 14.0687 34.1722 18.3278 34.1721C18.3513 34.1721 18.3751 34.172 18.3986 34.172C27.5838 34.134 35.0001 26.69 35.0001 17.5004C35.0001 8.42188 27.756 1.03182 18.7027 0.832664ZM18.915 1.86548C18.7482 2.11543 18.5618 2.38268 18.4443 2.66128C18.2982 3.00831 18.2953 3.35657 18.1678 3.47929C17.695 3.50417 17.4785 3.75405 17.3668 4.20904C17.3607 4.23351 17.3524 4.26749 17.3459 4.28896C17.3322 4.29607 17.3065 4.30523 17.2742 4.30721C17.1615 4.31459 17.0073 4.26749 16.8582 4.22223C16.3368 4.06382 16.5082 4.06191 16.2831 3.68487C15.9166 3.07196 15.5044 3.24048 14.9162 2.23029C16.2075 1.94335 17.5665 1.81564 18.915 1.86548ZM13.8909 2.49084C14.1973 3.08467 14.5507 3.55982 15.0894 3.93933C15.5766 4.28274 15.3485 4.24507 15.6181 4.62792C15.8773 4.99608 16.2884 5.12085 16.5603 5.20343C16.753 5.26196 16.9882 5.3334 17.2505 5.3334C17.2795 5.3334 17.3089 5.33251 17.3385 5.33066C17.755 5.30455 18.112 5.07736 18.2702 4.73772C18.3115 4.64918 18.3355 4.5629 18.3539 4.48941C19.2183 4.3431 19.278 3.32355 19.3895 3.05938C19.4575 2.89776 19.5867 2.70524 19.7234 2.50137C19.8436 2.32231 19.9661 2.13943 20.067 1.94964C21.366 2.09239 22.6295 2.39471 23.8348 2.84696C23.6107 3.86522 23.9861 4.40956 23.9815 4.83705C23.9788 5.1108 23.8206 5.39021 23.6373 5.71386C23.454 6.03758 23.2462 6.40457 23.176 6.83364C23.1325 7.10014 23.1473 7.36151 23.1604 7.59204C23.1759 7.86523 23.1892 8.1011 23.1108 8.27079C23.0747 8.34893 23.0061 8.43815 22.9335 8.53263C22.8167 8.68454 22.6843 8.85676 22.5996 9.08319C22.4423 9.50303 22.5057 9.95296 22.7634 10.3519L22.572 10.5518L20.8064 9.75538C20.5484 9.63888 20.2446 9.75373 20.1282 10.0119C20.0117 10.27 20.1267 10.5737 20.3848 10.6901L21.8194 11.3373L20.2359 12.9901L20.133 13.0976L16.3264 9.83837L17.001 9.16373L18.2035 9.70622C18.4616 9.82272 18.7653 9.70786 18.8818 9.44971C18.9982 9.19162 18.8833 8.88794 18.6252 8.77151L17.3323 8.18827C17 8.03827 16.6037 8.11094 16.3459 8.36862L15.4915 9.223C15.1285 9.5861 15.1516 10.1827 15.5416 10.5166L19.4224 13.8393L18.608 14.6893L15.8306 14.1482C15.4729 14.0785 15.1035 14.2398 14.9118 14.5498L14.276 15.5773C14.1472 15.7856 14.1107 16.0405 14.176 16.2766C14.2414 16.5127 14.4037 16.7126 14.6214 16.825L15.4476 17.2517H14.0952C13.9771 17.2517 13.8811 17.1557 13.8811 17.0377V16.4494C13.8811 15.7659 13.3251 15.2099 12.6416 15.2099H10.6586C10.6015 15.2099 10.5478 15.1876 10.5074 15.1472L9.0988 13.7387C9.0584 13.6983 9.03618 13.6446 9.03618 13.5874V12.2619C9.03618 12.1439 9.13216 12.0479 9.25017 12.0479H11.2597C11.5236 12.0479 11.7856 11.9614 11.9976 11.8044L15.2483 9.39652C15.5624 9.16373 15.75 8.7914 15.75 8.40055V7.76303C15.75 7.07956 15.1939 6.52353 14.5105 6.52353H13.9567C13.8387 6.52353 13.7427 6.42754 13.7427 6.30954V4.96326C13.7427 4.58464 13.5731 4.23187 13.2775 3.99539L12.17 3.10935C12.7305 2.86966 13.3048 2.66305 13.8909 2.49084ZM30.3025 14.7895C30.3139 14.8182 30.3285 14.8549 30.3398 14.8869C30.3347 14.8901 30.3291 14.8937 30.3231 14.8975C29.9692 15.1184 29.5459 15.247 29.0977 15.3831C28.5625 15.5456 28.009 15.7136 27.5113 16.0575C27.3109 16.196 27.1278 16.3637 26.9647 16.5514L25.6441 13.624L27.2389 12.0961C27.6168 12.2759 28.0947 12.426 28.6171 12.2569C28.8465 12.1826 29.0218 12.0624 29.1638 11.9988C29.8438 11.6941 30.6087 12.2927 30.4577 13.0348C30.4363 13.1406 30.3936 13.2597 30.3486 13.3857C30.1466 13.951 30.0913 14.2564 30.3025 14.7895ZM27.0321 19.1949C26.9556 19.2714 26.438 19.7891 26.3575 19.8695L23.0982 16.0629L24.8586 14.3765L26.4251 17.8491C26.4252 17.8493 26.4252 17.8494 26.4253 17.8496L27.0321 19.1949ZM27.169 10.7429C25.5342 12.3091 20.6221 17.015 18.7941 18.7663C18.7939 18.7666 18.7935 18.7668 18.7932 18.767C18.6918 18.8636 18.5165 18.8726 18.406 18.7621C18.3697 18.7258 17.4236 17.7853 17.3962 17.7421C17.3272 17.6324 17.3445 17.4907 17.4297 17.4017C22.6935 11.9074 22.4931 12.1167 25.4531 9.02693C26.1309 8.31946 27.1257 8.28261 27.5248 8.43521C27.6511 8.48348 27.7475 8.59293 27.7775 8.72693C27.9406 9.45449 27.7075 10.227 27.169 10.7429ZM21.0223 20.4641L20.2108 20.9661C19.7317 20.0384 19.9584 20.4772 19.4722 19.5359C19.4827 19.5265 19.4929 19.517 19.5031 19.5072C19.5033 19.5071 19.5035 19.5069 19.5036 19.5068L20.6262 18.4313L21.0223 20.4641ZM16.6892 16.6923C16.6892 16.6923 16.6891 16.6924 16.6892 16.6923C16.6792 16.7027 16.6696 16.7131 16.6601 16.7237L15.2297 15.9851L15.7318 15.1737L17.7646 15.5698L16.6892 16.6923ZM11.1953 3.56926C11.2651 3.67345 11.3513 3.76766 11.4522 3.84833L12.637 4.79624C12.6881 4.83705 12.7173 4.89797 12.7173 4.96333V6.30982C12.7173 6.99328 13.2734 7.54931 13.9568 7.54931H14.5106C14.6286 7.54931 14.7246 7.6453 14.7246 7.7633V8.40082C14.7246 8.4683 14.6922 8.53263 14.638 8.57276L11.3872 10.9806C11.3507 11.0077 11.3055 11.0227 11.2599 11.0227H9.2503C8.56684 11.0227 8.01081 11.5787 8.01081 12.2622V13.5877C8.01081 13.9189 8.13975 14.2301 8.37384 14.4642L9.78234 15.8726C10.0164 16.1067 10.3277 16.2357 10.6587 16.2357H12.6418C12.7598 16.2357 12.8558 16.3317 12.8558 16.4497V17.038C12.8558 17.7214 13.4119 18.2775 14.0953 18.2775C15.557 18.2775 15.499 18.268 15.5609 18.2937C14.0582 19.722 12.5204 21.1168 10.9687 22.4371L8.43318 20.6115C8.37753 20.5714 8.34424 20.5065 8.34424 20.4379V18.3686C8.34424 18.3323 8.3536 18.2963 8.37124 18.2646L8.52206 17.9937C8.79115 17.5103 8.7046 16.9005 8.31176 16.5109L5.80345 14.0235C5.76263 13.983 5.74014 13.929 5.74014 13.8715V12.2876C5.74014 11.9413 5.59376 11.6084 5.33855 11.3743L4.34962 10.467C5.81746 7.55116 8.20832 5.09876 11.1953 3.56926ZM3.8984 11.4447L4.6451 12.1298C4.6892 12.1702 4.7145 12.2277 4.7145 12.2875V13.8713C4.7145 14.1996 4.84815 14.5203 5.08115 14.7515L7.58946 17.2389C7.65728 17.3062 7.67226 17.4115 7.62584 17.4949L7.47509 17.7657C7.37267 17.9496 7.31859 18.1581 7.31859 18.3685V20.4378C7.31859 20.8353 7.51118 21.2114 7.83381 21.4437L10.1596 23.1182C8.7515 24.2875 7.10379 25.5772 5.58932 26.5886C4.88165 25.5989 4.26772 24.4954 3.78717 23.2864C3.78498 23.2808 3.78272 23.2754 3.78026 23.27C2.24255 19.3867 2.34346 15.1481 3.8984 11.4447ZM4.72667 27.143C4.4694 27.3011 4.23695 27.437 4.02823 27.5532C4.15484 27.3259 4.30491 27.0707 4.48061 26.7872C4.56108 26.9069 4.64312 27.0255 4.72667 27.143ZM2.36609 30.5538C1.9565 30.5538 1.64851 30.4366 1.39678 30.1849C0.590189 29.3783 1.30257 27.8631 1.57078 27.2927C1.93531 26.5174 2.48368 25.5892 3.20488 24.5258C3.39891 24.9428 3.62801 25.3872 3.87782 25.822C3.19395 26.8808 2.70881 27.7875 2.46912 28.457C2.32357 28.8631 2.71702 29.2583 3.12469 29.1126C6.74985 27.8147 13.9643 21.2522 16.7598 18.5662L17.6626 19.469C15.1923 21.8439 5.79292 30.5538 2.36609 30.5538ZM7.82369 29.0956C8.82479 28.4058 9.83778 27.6448 10.7993 26.8849C10.8192 26.9952 10.8536 27.1029 10.9021 27.2035L11.6579 28.7732C11.6718 28.802 11.6792 28.8342 11.6792 28.8661V30.1884C11.6792 30.8719 12.2352 31.4279 12.9187 31.4279H14.0001C14.6836 31.4279 15.2396 30.8719 15.2396 30.1884V28.1158C15.2396 28.0568 15.2643 27.9999 15.3073 27.9595L16.3263 27.0061C16.5758 26.7727 16.719 26.4428 16.719 26.101V25.3144C16.719 25.0312 16.4895 24.8016 16.2062 24.8016C15.923 24.8016 15.6935 25.0312 15.6935 25.3144V26.101C15.6935 26.16 15.6688 26.2169 15.6257 26.2572L14.6067 27.2107C14.3572 27.4442 14.2141 27.774 14.2141 28.1158V30.1884C14.2141 30.3064 14.1181 30.4024 14.0001 30.4024H12.9187C12.8007 30.4024 12.7047 30.3064 12.7047 30.1884V28.8661C12.7047 28.6811 12.6623 28.4952 12.582 28.3284L11.826 26.7584C11.8122 26.7297 11.8048 26.6977 11.8048 26.6657V26.0764C13.9249 24.3427 16.2144 22.2942 18.5684 20.0209L18.9465 20.753V21.8473C18.9465 21.9123 18.9175 21.9729 18.8671 22.0137L17.4813 23.1341C17.2611 23.3121 17.2269 23.635 17.405 23.8552C17.5829 24.0753 17.9057 24.1097 18.1261 23.9315L19.5119 22.8111C19.7565 22.6134 19.9134 22.335 19.9584 22.0292C20.0229 22.0439 20.0884 22.0516 20.1538 22.0516C20.3166 22.0516 20.4782 22.0067 20.6186 21.9198L21.6458 21.2843C21.956 21.0927 22.1176 20.7234 22.0478 20.3655L21.5067 17.5879L22.3567 16.7736L25.6794 20.6544C25.9753 20.9999 26.4985 21.0726 26.8817 20.7826C27.0907 21.2025 27.2877 21.5993 27.3916 22.0093C27.6746 23.1252 27.2985 25.5816 30.1201 27.7845C24.2916 34.4494 14.1957 34.8718 7.82369 29.0956ZM30.7694 26.991C28.2831 25.0597 28.7139 23.0522 28.3857 21.7573C28.2543 21.2393 28.0222 20.7726 27.7976 20.3214C27.7475 20.2206 27.6987 20.1225 27.6518 20.0255L27.6817 19.9956L27.8275 19.8498C28.0767 19.6005 28.162 19.2057 28.0077 18.8636L27.4553 17.6389C27.6092 17.3403 27.8311 17.0828 28.0941 16.9012C28.4601 16.6483 28.9146 16.5103 29.3957 16.3642C29.888 16.2147 30.397 16.0601 30.8661 15.7674C31.0224 15.6699 31.215 15.5263 31.3172 15.28C31.4619 14.9316 31.338 14.6188 31.2559 14.4118C31.2327 14.3533 31.2109 14.2982 31.2016 14.2595C31.1708 14.1322 31.2405 13.9372 31.3142 13.7307C31.3669 13.5835 31.4266 13.4166 31.4627 13.2391C31.7783 11.6874 30.19 10.4153 28.7447 11.0627C28.4198 11.2082 28.3251 11.3371 28.0574 11.2969C28.7294 10.5361 28.9973 9.45894 28.7781 8.50255H28.7782C28.711 8.20276 28.5489 7.93811 28.3257 7.74135C28.3235 7.73937 28.3214 7.73718 28.3192 7.7352C28.1685 7.60407 27.9902 7.50385 27.7947 7.4445C26.8864 7.16885 25.5867 7.40512 24.7125 8.31748L23.5407 9.54057C23.5417 9.50823 23.5476 9.47555 23.5598 9.44294C23.5908 9.36015 23.6664 9.2617 23.7464 9.15751C23.8453 9.02891 23.9573 8.88315 24.0414 8.70123C24.2273 8.29909 24.2043 7.89272 24.184 7.5342C24.173 7.33901 24.1626 7.15463 24.1879 6.99916C24.2286 6.75065 24.3747 6.49249 24.5295 6.21923C24.7507 5.82865 25.0014 5.3859 25.0068 4.84765C25.0133 4.21546 24.7233 3.92019 24.8039 3.25245C33.9883 7.42092 36.8298 19.0874 30.7694 26.991Z" fill="black"/>
</g>
<defs>
<clipPath id="clip0">
<rect width="35" height="35" fill="white"/>
</clipPath>
</defs>
</svg>
