<svg width="1440" height="500" viewBox="0 0 1440 500" fill="none" xmlns="http://www.w3.org/2000/svg">
<rect width="1440" height="500" fill="#78909C"/>
<path d="M735 246.25C737.462 246.25 739.9 245.765 742.175 244.823C744.45 243.88 746.517 242.499 748.258 240.758C749.999 239.017 751.38 236.95 752.323 234.675C753.265 232.4 753.75 229.962 753.75 227.5C753.75 222.527 751.775 217.758 748.258 214.242C744.742 210.725 739.973 208.75 735 208.75C730.027 208.75 725.258 210.725 721.742 214.242C718.225 217.758 716.25 222.527 716.25 227.5C716.25 229.962 716.735 232.4 717.677 234.675C718.62 236.95 720.001 239.017 721.742 240.758C725.258 244.274 730.027 246.25 735 246.25ZM735 175C763.95 175 787.5 198.475 787.5 227.5C787.5 266.875 735 325 735 325C735 325 682.5 266.875 682.5 227.5C682.5 213.576 688.031 200.222 697.877 190.377C707.723 180.531 721.076 175 735 175ZM667.5 227.5C667.5 261.25 705.6 307.45 712.5 316.075L705 325C705 325 652.5 266.875 652.5 227.5C652.5 203.725 668.325 183.625 690 177.175C676.2 189.55 667.5 207.475 667.5 227.5Z" fill="#ECEFF1"/>
</svg>
